<?xml version="1.0" encoding="utf-8"?>
<!-- Generator: Adobe Illustrator 23.0.0, SVG Export Plug-In . SVG Version: 6.00 Build 0)  -->
<svg version="1.1" id="Capa_1" xmlns="http://www.w3.org/2000/svg" xmlns:xlink="http://www.w3.org/1999/xlink" x="0px" y="0px"
	 viewBox="0 0 377.5 97.6" style="enable-background:new 0 0 377.5 97.6;" xml:space="preserve">
<style type="text/css">
	.st0{fill:#FFFFFF;}
	.st1{fill:#E8E8E7;}
	.st2{fill:#010001;}
	.st3{fill:#1E120D;}
	.st4{fill:#0A0A0A;}
	.st5{fill:#212121;}
	.st6{fill:none;stroke:#212121;stroke-width:4;stroke-miterlimit:10;}
	.st7{fill:#F2F2F2;}
	.st8{fill:none;stroke:#000000;stroke-miterlimit:10;}
	.st9{fill:none;stroke:#212121;stroke-miterlimit:10;}
	.st10{fill:#0F0F0F;}
	.st11{fill:#2B2B2B;}
	.st12{fill:none;stroke:#0F0F0F;stroke-miterlimit:10;}
</style>
<g>
	<g>
		<path class="st2" d="M76.9,20.4V96H65.8V51.9l0.9-20.8h-0.1L43.4,96h-10L10.3,31.1h-0.2L11,51.9V96H0V20.4h17.7l15.3,43.9
			l5.4,18.1h0.2l5.4-18.1l15.2-43.9H76.9z"/>
		<path class="st2" d="M83.7,96l20.1-75.6h17.4L141.2,96h-11.4l-17.3-68.6h0.1L95.1,96H83.7z M95.3,76.8v-9.2h34.4v9.2H95.3z"/>
		<path class="st2" d="M202.8,69.3c0,3.1-0.6,6.3-1.7,9.6c-1.2,3.2-2.9,6.2-5.3,9c-2.4,2.8-5.3,5-8.9,6.7c-3.6,1.7-7.8,2.5-12.6,2.5
			c-6.6,0-12.2-1.7-16.8-5c-4.6-3.3-8.1-7.9-10.6-13.7c-2.4-5.8-3.6-12.5-3.6-20c0-7.6,1.2-14.3,3.6-20.1
			c2.4-5.8,5.9-10.4,10.6-13.7c4.6-3.3,10.2-5,16.8-5c5.5,0,10.2,1.1,14,3.2c3.9,2.1,7,4.9,9.3,8.3c2.3,3.4,3.8,6.9,4.6,10.5
			c0.4,2,0.7,3.9,0.7,5.6h-11.1c0-1-0.1-2-0.3-3.1c-0.4-2.7-1.3-5.2-2.7-7.5c-1.4-2.3-3.4-4.1-5.8-5.5c-2.4-1.4-5.3-2-8.6-2
			c-3.9,0-7.3,1.1-10.3,3.2c-3,2.2-5.3,5.4-6.9,9.7c-1.7,4.3-2.5,9.7-2.5,16.2c0,6.4,0.8,11.8,2.5,16.2c1.7,4.3,4,7.6,6.9,9.8
			c3,2.2,6.4,3.3,10.3,3.3c2.8,0,5.3-0.5,7.5-1.5c2.1-1,4-2.4,5.4-4.1c1.5-1.7,2.6-3.7,3.3-5.9c0.8-2.2,1.2-4.4,1.2-6.7H202.8z"/>
		<path class="st2" d="M266.3,68.3c0,9.7-2.4,16.9-7.1,21.6c-4.7,4.7-11.3,7.1-19.6,7.1c-8.3,0-14.8-2.4-19.6-7.1
			c-4.7-4.7-7.1-11.9-7.1-21.6c0-1.4,0-3,0-4.6c0-1.6,0-3.3,0-5.1V20.5H224v39.4c0,1.6,0,3.2,0,4.6c0,1.4,0,2.7,0,3.8
			c0,6.8,1.3,11.7,3.9,14.8c2.6,3,6.5,4.5,11.7,4.5c5.2,0,9.1-1.5,11.7-4.5c2.6-3,3.9-7.9,3.9-14.8V20.5h11.1V68.3z"/>
		<path class="st2" d="M277,96V20.5h11.1v72l-5-6h34.2V96H277z"/>
		<path class="st2" d="M320,96l20.1-75.6h17.4L377.5,96h-11.4l-17.3-68.6h0.1L331.5,96H320z M331.7,76.8v-9.2H366v9.2H331.7z"/>
	</g>
	<rect x="92.5" y="0.7" class="st2" width="40.1" height="9.2"/>
</g>
</svg>
